<svg width="609" height="858" viewBox="0 0 609 858" fill="none" xmlns="http://www.w3.org/2000/svg">
<path fill-rule="evenodd" clip-rule="evenodd" d="M298.517 1.12836C299.36 4.30471 300.347 7.47141 301.469 10.6267L302.411 10.2917C301.298 7.16104 300.319 4.02047 299.483 0.871698L298.517 1.12836ZM314.305 37.503C317.625 43.0675 321.315 48.5798 325.331 54.0297L326.136 53.4366C322.138 48.0102 318.465 42.5248 315.164 36.9906L314.305 37.503ZM344.344 76.9176C348.769 81.7095 353.411 86.4385 358.237 91.0968L358.931 90.3774C354.118 85.7312 349.49 81.016 345.079 76.2392L344.344 76.9176ZM380.394 110.99C385.43 115.216 390.587 119.369 395.836 123.441L396.449 122.651C391.21 118.586 386.062 114.441 381.037 110.224L380.394 110.99ZM419.805 141.081C425.242 144.885 430.725 148.599 436.228 152.218L436.778 151.383C431.283 147.769 425.807 144.06 420.379 140.262L419.805 141.081ZM461.407 168.071C467.147 171.533 472.86 174.88 478.511 178.105L479.007 177.236C473.362 174.015 467.657 170.672 461.924 167.215L461.407 168.071ZM504.632 192.401C510.685 195.576 516.595 198.581 522.314 201.406L522.757 200.509C517.045 197.688 511.143 194.687 505.096 191.515L504.632 192.401ZM549.243 214.04C552.376 215.427 555.401 216.735 558.306 217.961L558.694 217.039C555.796 215.816 552.776 214.511 549.648 213.126L549.243 214.04ZM579.739 354.843C582.917 353.436 585.921 351.968 588.739 350.44L588.262 349.561C585.47 351.075 582.491 352.531 579.334 353.929L579.739 354.843ZM532.031 369.41C538.84 367.954 545.341 366.379 551.495 364.677L551.228 363.714C545.096 365.409 538.615 366.98 531.822 368.432L532.031 369.41ZM93.9513 373.498C97.1499 373.811 100.443 374.124 103.824 374.437L103.916 373.441C100.536 373.129 97.2455 372.815 94.0488 372.502L93.9513 373.498ZM482.754 377.389C489.52 376.575 496.125 375.685 502.545 374.718L502.395 373.729C495.986 374.695 489.392 375.583 482.634 376.397L482.754 377.389ZM133.728 376.988C140.144 377.493 146.768 377.988 153.575 378.469L153.646 377.472C146.841 376.991 140.22 376.496 133.807 375.992L133.728 376.988ZM183.484 380.414C190.015 380.801 196.664 381.173 203.414 381.525L203.466 380.526C196.718 380.174 190.072 379.803 183.544 379.415L183.484 380.414ZM433.011 381.931C439.748 381.485 446.396 380.985 452.935 380.428L452.851 379.432C446.317 379.988 439.676 380.487 432.945 380.933L433.011 381.931ZM233.358 382.919C239.947 383.189 246.602 383.437 253.308 383.661L253.342 382.662C246.638 382.438 239.985 382.19 233.398 381.92L233.358 382.919ZM383.124 384.262C389.827 384.066 396.485 383.829 403.085 383.547L403.043 382.548C396.447 382.829 389.793 383.067 383.095 383.262L383.124 384.262ZM283.272 384.482C289.903 384.624 296.562 384.738 303.234 384.823L303.246 383.823C296.577 383.738 289.922 383.624 283.293 383.483L283.272 384.482ZM333.188 384.997C339.857 384.989 346.518 384.946 353.159 384.869L353.147 383.869C346.51 383.947 339.852 383.989 333.187 383.997L333.188 384.997ZM8.55859 523.645C5.87228 521.757 3.25095 519.841 0.69727 517.898L1.30279 517.102C3.84611 519.037 6.4573 520.945 9.13375 522.827L8.55859 523.645ZM50.6661 548.625C44.7297 545.618 38.9696 542.526 33.4022 539.347L33.898 538.478C39.4501 541.649 45.1955 544.733 51.118 547.733L50.6661 548.625ZM95.4091 568.518C89.2501 566.103 83.2086 563.62 77.2974 561.068L77.6938 560.15C83.594 562.697 89.625 565.176 95.7741 567.587L95.4091 568.518ZM141.626 584.756C135.343 582.774 129.138 580.735 123.022 578.638L123.346 577.692C129.455 579.787 135.652 581.823 141.927 583.802L141.626 584.756ZM188.67 598.211C182.316 596.563 176.009 594.865 169.76 593.115L170.029 592.152C176.272 593.9 182.573 595.596 188.921 597.243L188.67 598.211ZM236.31 609.487C229.915 608.107 223.543 606.683 217.203 605.212L217.429 604.238C223.764 605.707 230.13 607.131 236.521 608.509L236.31 609.487ZM284.334 618.961C277.914 617.805 271.496 616.608 265.087 615.368L265.277 614.386C271.681 615.626 278.095 616.822 284.511 617.977L284.334 618.961ZM332.64 626.899C326.208 625.938 319.755 624.937 313.29 623.895L313.449 622.908C319.91 623.949 326.359 624.95 332.787 625.91L332.64 626.899ZM381.114 633.475C374.684 632.689 368.208 631.863 361.694 630.998L361.826 630.007C368.336 630.872 374.809 631.696 381.236 632.482L381.114 633.475ZM429.808 638.809C423.39 638.187 416.893 637.525 410.328 636.823L410.434 635.828C416.996 636.53 423.49 637.192 429.905 637.814L429.808 638.809ZM478.559 642.928C472.167 642.469 465.647 641.968 459.015 641.424L459.097 640.427C465.726 640.971 472.242 641.472 478.631 641.931L478.559 642.928ZM527.425 645.788C521.097 645.507 514.559 645.179 507.83 644.803L507.886 643.804C514.611 644.181 521.146 644.508 527.47 644.789L527.425 645.788ZM566.492 647C563.349 646.949 560.115 646.884 556.795 646.804L556.819 645.805C560.137 645.885 563.368 645.95 566.508 646L566.492 647ZM42.6973 856.602C45.2509 854.659 47.8723 852.743 50.5586 850.855L51.1337 851.673C48.4573 853.555 45.8461 855.463 43.3028 857.398L42.6973 856.602ZM75.4022 835.153C80.9697 831.974 86.7297 828.882 92.6661 825.875L93.118 826.767C87.1955 829.767 81.4501 832.851 75.898 836.022L75.4022 835.153ZM119.297 813.432C125.209 810.88 131.25 808.397 137.409 805.982L137.774 806.913C131.625 809.324 125.594 811.803 119.694 814.35L119.297 813.432ZM165.022 795.862C171.138 793.765 177.343 791.726 183.626 789.744L183.927 790.698C177.652 792.677 171.455 794.713 165.346 796.808L165.022 795.862ZM211.76 781.385C218.009 779.635 224.316 777.937 230.67 776.289L230.921 777.257C224.573 778.904 218.272 780.6 212.029 782.348L211.76 781.385ZM259.203 769.288C265.543 767.817 271.915 766.393 278.31 765.013L278.521 765.991C272.13 767.369 265.764 768.793 259.429 770.262L259.203 769.288ZM307.087 759.132C313.496 757.892 319.914 756.695 326.334 755.539L326.511 756.523C320.095 757.678 313.681 758.874 307.277 760.114L307.087 759.132ZM355.29 750.605C361.755 749.563 368.208 748.562 374.64 747.601L374.787 748.59C368.359 749.55 361.91 750.551 355.449 751.592L355.29 750.605ZM403.694 743.502C410.208 742.637 416.684 741.811 423.114 741.025L423.236 742.018C416.809 742.804 410.336 743.628 403.826 744.493L403.694 743.502ZM452.328 737.677C458.893 736.975 465.39 736.313 471.808 735.691L471.905 736.686C465.49 737.308 458.996 737.97 452.434 738.672L452.328 737.677ZM501.015 733.076C507.647 732.532 514.167 732.031 520.559 731.572L520.631 732.569C514.242 733.028 507.726 733.529 501.097 734.073L501.015 733.076ZM549.83 729.697C556.559 729.321 563.097 728.993 569.425 728.712L569.47 729.711C563.146 729.992 556.611 730.319 549.886 730.696L549.83 729.697ZM598.795 727.696C602.115 727.616 605.349 727.551 608.492 727.5L608.508 728.5C605.368 728.55 602.137 728.615 598.819 728.695L598.795 727.696Z" fill="#8A8A8A"/>
</svg>
